<?xml version="1.0" standalone="no"?>
<!DOCTYPE svg PUBLIC "-//W3C//DTD SVG 20010904//EN"
 "http://www.w3.org/TR/2001/REC-SVG-20010904/DTD/svg10.dtd">
<svg version="1.0" xmlns="http://www.w3.org/2000/svg"
 width="16.000000pt" height="16.000000pt" viewBox="0 0 16.000000 16.000000"
 preserveAspectRatio="xMidYMid meet">
<metadata>
Created by potrace 1.11, written by Peter Selinger 2001-2013
</metadata>
<g transform="translate(0.000000,16.000000) scale(0.001869,-0.001869)"
fill="#000000" stroke="none">
<path d="M2017 7770 c-68 -118 -167 -289 -219 -380 -53 -91 -105 -181 -115
-200 -11 -19 -119 -206 -240 -415 -385 -666 -410 -709 -431 -745 -10 -19 -84
-147 -164 -285 -79 -137 -216 -374 -303 -525 -87 -151 -183 -318 -213 -370
-30 -52 -98 -169 -150 -260 -52 -91 -114 -197 -137 -236 l-42 -71 32 -59 c47
-87 653 -1133 758 -1312 50 -83 94 -152 98 -152 14 0 16 4 341 845 38 99 74
189 79 200 4 11 52 133 105 270 53 138 181 471 286 740 104 270 275 713 380
985 105 272 192 497 194 498 1 2 188 5 416 5 l413 2 36 -90 c20 -49 128 -315
239 -590 165 -409 573 -1414 933 -2300 36 -88 167 -412 291 -720 125 -308 231
-569 236 -580 5 -11 57 -139 116 -285 59 -146 187 -465 285 -709 98 -244 181
-446 184 -449 3 -4 228 -7 500 -7 l494 0 55 95 c31 52 120 206 198 343 182
316 129 223 521 902 187 325 389 673 447 775 59 102 165 286 237 410 71 124
141 245 155 270 14 25 82 142 150 260 69 118 182 313 251 433 l125 218 -126
217 c-68 119 -148 258 -177 307 -79 134 -228 394 -257 445 -34 60 -496 861
-508 880 -31 50 -100 174 -100 180 0 4 -6 13 -14 19 -18 15 -7 30 -459 -620
-183 -261 -418 -599 -524 -750 l-191 -274 -2 -655 c-1 -360 -3 -799 -5 -975
-2 -176 -4 -422 -4 -547 -1 -207 -3 -227 -18 -232 -10 -3 -179 -8 -376 -12
l-359 -6 6 1213 5 1213 -106 161 c-905 1359 -1960 2948 -2042 3077 -32 50 -40
57 -71 59 -19 1 -272 2 -562 3 l-527 1 -124 -215z"/>
<path d="M4217 7982 c-17 -2 -27 -8 -24 -15 4 -10 628 -975 845 -1307 172
-263 516 -808 571 -902 111 -194 238 -407 251 -425 21 -28 14 -37 120 142 153
256 538 856 878 1368 62 92 112 173 112 178 0 6 -17 41 -39 77 -21 37 -48 83
-59 102 -11 19 -43 76 -72 125 -29 50 -64 110 -78 135 -14 25 -44 77 -67 115
-23 39 -55 93 -70 120 -35 64 -158 278 -163 285 -4 5 -2158 7 -2205 2z"/>
<path d="M2655 5628 c-29 -143 -113 -461 -155 -593 -63 -193 -235 -679 -285
-805 -8 -19 -84 -224 -170 -455 -85 -231 -160 -431 -166 -445 -14 -32 -139
-379 -139 -385 0 -3 430 -5 956 -5 l957 0 -6 30 c-6 30 -49 149 -117 325 -84
218 -368 988 -510 1380 -147 408 -155 429 -254 719 -47 138 -90 254 -95 259
-5 5 -12 -4 -16 -25z"/>
<path d="M1435 2120 l-68 -191 31 -62 c18 -34 39 -73 47 -87 47 -78 212 -363
235 -405 47 -87 261 -457 310 -535 25 -41 59 -99 74 -129 15 -29 39 -72 54
-95 l27 -42 1195 2 c657 1 1198 2 1203 3 4 1 7 7 7 14 0 14 -538 1430 -636
1678 l-16 39 -1197 0 -1197 0 -69 -190z"/>
<path d="M93 593 c9 -2 25 -2 35 0 9 3 1 5 -18 5 -19 0 -27 -2 -17 -5z"/>
</g>
</svg>
